<svg class="svg-icon" style="width: 1em; height: 1em;vertical-align: middle;fill: currentColor;overflow: hidden;" viewBox="0 0 1024 1024" version="1.1" xmlns="http://www.w3.org/2000/svg"><path d="M444.8 407.6V262.4H306.4c-46 0-83.2-37.2-83.2-83.2V83.6C223.2 37.2 260.4 0 306.4 0h410.4C762.8 0 800 37.2 800 83.2v95.6c0 46-37.2 83.2-83.2 83.2h-141.6l-130.4 145.6zM306.4 12.4c-39.2 0-70.8 32-70.8 70.8v95.6c0 39.2 32 70.8 70.8 70.8h150.4v125.6l112.8-125.6h147.2c39.2 0 70.8-32 70.8-70.8V83.2c0-39.2-32-70.8-70.8-70.8H306.4z" fill="#4A555F" /><path d="M769.2 179.2c0 28.8-23.6 52.4-52.4 52.4h-155.6l-85.6 95.6V231.6H306.4c-28.8 0-52.4-23.6-52.4-52.4V83.6c0-28.8 23.6-52.4 52.4-52.4h410.4c28.8 0 52.4 23.6 52.4 52.4v95.6z" fill="#71CDE1" /><path d="M512 1024l-211.6-321.2c-31.2-54.4-52.8-97.2-52.8-158.8 0-122.4 83.2-228.4 202-257.2l7.6-2v90.4l84.8-94.4 3.2 0.4c132 16.4 231.6 129.2 231.6 262.4 0 63.2-23.2 107.2-56 162.4L512 1024zM444.8 300.8c-109.2 30-185.2 129.2-185.2 243.2 0 58.4 21.2 100 51.2 152.4l201.2 305.2 198.4-301.6c31.6-53.2 54-96 54-156 0-126-93.6-233.2-218-250l-102 113.6V300.8z m68.8 378c-74.8 0-135.6-60.8-135.6-135.6s60.8-135.6 135.6-135.6 135.6 60.8 135.6 135.6-60.8 135.6-135.6 135.6z m0-259.2c-68 0-123.6 55.2-123.6 123.6 0 68 55.2 123.6 123.6 123.6 68 0 123.6-55.2 123.6-123.6 0-68-55.6-123.6-123.6-123.6z" fill="#4A555F" /><path d="M322.8 688.8c-33.6-59.2-48.8-94-48.8-144.4 0-101.2 63.2-190 156.4-223.6v98c-40.4 26.8-66.8 72.8-66.8 124.8 0 82.8 67.2 150 150 150s150-67.2 150-150-67.2-150-150-150c-14.8 0-28.8 2-42 6L552 309.6c113.6 19.2 198 118.4 198 234.8 0 56.4-20.4 95.6-52 148.4L512 975.6l-189.2-286.8z" fill="#F68F6F" /><path d="M508.8 932.4h-12.4V920h12l0.4 12.4z m12-0.4v-12.4h12l0.4 12.4h-12.4z m-36.8-0.4c-4 0-8.4-0.4-12.4-0.4l0.4-12.4c4 0 8 0.4 12 0.4v12.4z m61.6 0l-0.4-12.4c4 0 8-0.4 12-0.4l0.8 12.4c-4 0-8.4 0.4-12.4 0.4z m-86.4-0.8c-4-0.4-8.4-0.4-12.4-0.8l0.8-12.4c4 0.4 8 0.4 12 0.8l-0.4 12.4z m111.2-0.4l-0.8-12.4c4-0.4 8-0.4 12-0.8l0.8 12.4c-4 0.4-8 0.4-12 0.8z m-135.6-1.6c-4-0.4-8.4-0.8-12.4-1.2l1.2-12 12 1.2-0.8 12z m160-0.4l-1.2-12 12-1.2 1.2 12c-3.6 0.4-7.6 0.8-12 1.2z m-184.8-2c-4-0.4-8-0.8-12.4-1.6l1.6-12c4 0.4 8 1.2 12 1.6l-1.2 12z m209.6-0.4l-1.6-12c4-0.4 8-1.2 12-1.6l1.6 12c-4 0.4-8 0.8-12 1.6z m-234-2.8c-4-0.4-8-1.2-12.4-2l2-12c4 0.8 8 1.2 12 2l-1.6 12z m258.4-0.8l-2-12c4-0.8 8-1.2 12-2l2 12c-4 0.8-8 1.6-12 2z m-282.8-3.2l-12-2.4 2.4-12 12 2.4-2.4 12z m307.2-0.8l-2.4-12 12-2.4 2.4 12-12 2.4z m-331.6-4c-4-0.8-8-1.6-12-2.8l2.8-12c4 0.8 8 1.6 12 2.8l-2.8 12z m355.6-1.2l-2.8-12c4-0.8 8-2 12-2.8l2.8 12c-4 1.2-8 2-12 2.8z m-379.6-4.4c-4-1.2-8-2-12-3.2l3.2-12c4 1.2 7.6 2 11.6 3.2l-2.8 12z m403.6-1.2l-3.2-12c4-1.2 8-2 11.6-3.2l3.2 11.6c-3.6 1.2-7.6 2.4-11.6 3.6z m-427.2-5.2l-12-3.6 3.6-11.6c4 1.2 7.6 2.4 11.6 3.6l-3.2 11.6z m451.2-1.6l-3.6-11.6c4-1.2 7.6-2.4 11.6-3.6l4 11.6-12 3.6z m-474.8-6c-4-1.2-8-2.8-11.6-4.4l4.4-11.6c3.6 1.6 7.6 2.8 11.2 4l-4 12z m498.4-2l-4-11.6c4-1.2 7.6-2.8 11.2-4.4l4.4 11.6c-4 1.6-7.6 3.2-11.6 4.4z m-521.6-6.8c-4-1.6-7.6-3.2-11.6-4.8l4.8-11.2c3.6 1.6 7.2 3.2 11.2 4.8l-4.4 11.2z m544.4-2.4l-4.8-11.2c3.6-1.6 7.6-3.2 11.2-4.8l5.2 11.2c-3.6 1.6-7.6 3.2-11.6 4.8zM219.6 876c-4-2-7.6-3.6-11.2-5.6l5.6-10.8c3.6 2 7.2 3.6 10.8 5.6l-5.2 10.8z m590-2.8l-5.6-10.8c3.6-2 7.2-3.6 10.8-5.6l6 10.8c-3.6 2-7.6 4-11.2 5.6z m-612.4-8.8c-3.6-2-7.2-4.4-10.8-6.4l6.8-10.4c3.2 2 6.8 4 10.4 6.4l-6.4 10.4z m634.4-3.2l-6.4-10.4c3.6-2 6.8-4.4 10-6.4l6.8 10c-3.2 2.4-6.8 4.8-10.4 6.8z m-655.2-10.4c-3.6-2.4-6.8-5.2-10-7.6l7.6-9.6 9.6 7.2-7.2 10z m676-3.6l-7.2-9.6c3.2-2.4 6.4-4.8 9.2-7.6l8 9.2c-3.2 2.8-6.8 5.6-10 8z m-695.6-12.4c-3.2-2.8-6.4-6-9.2-8.8l8.8-8.4c2.4 2.8 5.2 5.6 8.4 8.4l-8 8.8z m714.8-4l-8.4-8.8c2.8-2.8 5.6-5.6 8-8.4l9.2 8c-2.8 3.2-5.6 6.4-8.8 9.2zM139.2 816c-2.8-3.6-5.2-7.2-7.2-10.8l10.4-6.4c2 3.2 4 6.4 6.4 9.6l-9.6 7.6z m748.8-4.8l-10-6.8c2.4-3.2 4.4-6.4 6-9.6l10.8 5.6c-2 3.6-4 7.2-6.8 10.8z m-762-17.2c-1.6-4-3.2-8.4-4.4-12.4l12-3.2c0.8 3.6 2.4 7.2 3.6 10.8l-11.2 4.8z m774.4-5.6l-11.6-4c1.2-3.6 2.4-7.2 2.8-10.8l12 2.4c-0.8 4-2 8.4-3.2 12.4z m-781.2-20c-0.4-2.4-0.4-5.2-0.4-7.6v-5.6l12.4 0.8v4.8c0 2 0 4.4 0.4 6.4l-12.4 1.2z m786-6l-12.4-0.4v-1.6c0-3.2-0.4-6.4-0.8-9.6l12-1.6c0.4 4 0.8 7.6 0.8 11.6l0.4 1.6z m-772-17.2l-12-2.8c1.2-4 2.4-8.4 4-12.4l11.2 4.8c-1.2 3.2-2.4 6.8-3.2 10.4z m756.4-4.8c-1.2-3.6-2.4-7.2-4.4-10.4l11.2-5.2c2 4 3.6 8 4.8 12l-11.6 3.6z m-748-16.4l-10.8-6c2-3.6 4.4-7.2 7.2-10.8l10 7.2c-2.4 3.2-4.4 6.4-6.4 9.6z m738-4.4c-2-3.2-4.4-6.4-6.8-9.2l9.6-7.6c2.8 3.6 5.2 6.8 7.6 10.4l-10.4 6.4z m-724.4-14l-9.2-8.4c2.8-3.2 5.6-6 8.8-9.2l8.4 8.8c-2.4 3.2-5.2 6-8 8.8z m710-4c-2.8-2.8-5.6-5.6-8.4-8l8-9.2c3.2 2.8 6.4 5.6 9.2 8.8l-8.8 8.4z m-692.8-12.4l-7.6-9.6c3.2-2.8 6.4-5.2 10-7.6l7.2 10-9.6 7.2z m674.8-3.2l-9.6-7.2 6.8-10c3.6 2.4 6.8 4.8 10 7.6l-7.2 9.6z m-655.6-10.8l-6.8-10.4c3.6-2.4 7.2-4.4 10.8-6.4l6 10.4c-3.2 2.4-6.4 4.4-10 6.4z m636-2.8c-3.2-2-6.8-4-10.4-6l6-10.8c3.6 2 7.2 4.4 10.8 6.4l-6.4 10.4z m-615.2-9.2l-5.6-10.8c3.6-2 7.2-4 11.2-5.6l5.2 11.2c-3.6 1.6-7.2 3.2-10.8 5.2z m594.4-2.4c-3.6-2-7.2-3.6-10.8-5.2l5.2-11.2c4 1.6 7.6 3.6 11.2 5.6l-5.6 10.8z m-572.8-8.4l-5.2-11.2c3.6-1.6 7.6-3.2 11.6-4.8l4.8 11.2c-4 1.6-7.6 3.2-11.2 4.8z m550.8-2c-3.6-1.6-7.2-3.2-11.2-4.8l4.4-11.2c4 1.6 7.6 3.2 11.6 4.8l-4.8 11.2z m-528.4-7.2L252 632c4-1.6 7.6-2.8 11.6-4.4l4 11.6c-3.6 1.2-7.6 2.8-11.2 4z m506-1.6c-3.6-1.2-7.6-2.8-11.2-4l4-11.6c4 1.2 8 2.8 11.6 4l-4.4 11.6zM404 189.2c-9.2 0-17.6-3.6-24.4-10-6.4-6.4-10-15.2-10-24.4h12.4c0 6 2.4 11.6 6.4 15.6s9.6 6.4 15.6 6.4c12 0 22-10 22-22 0-10.8-8.8-20-20-20h-4.4c-17.6 0-32-14.4-32-32v-2c0-18.8 15.6-34.4 34.4-34.4 18.8 0 34.4 15.6 34.4 34.4v0.4h-12.4v-0.4c0-12-10-22-22-22s-22 10-22 22v2c0 10.8 8.8 20 20 20h4.4c17.6 0 32 14.4 32 32 0 18.8-15.2 34.4-34.4 34.4zM542 189.2h-39.6c-17.6 0-32.4-14.4-32.4-32.4V101.6c0-17.6 14.4-32.4 32.4-32.4h39.6v12.4h-39.6c-11.2 0-20 8.8-20 20v55.2c0 11.2 8.8 20 20 20h39.6v12.4z" fill="#4A555F" /><path d="M476.4 121.6h65.6v12.4h-65.6zM617.6 189.2h-14.8c-17.6 0-31.6-14-31.6-31.6V100.8c0-17.6 14-31.6 31.6-31.6h14.8c17.6 0 31.6 14 31.6 31.6v56.8c0 17.2-14 31.6-31.6 31.6z m-14.8-107.6c-10.8 0-19.2 8.8-19.2 19.2v56.8c0 10.8 8.8 19.2 19.2 19.2h14.8c10.8 0 19.2-8.8 19.2-19.2V100.8c0-10.8-8.8-19.2-19.2-19.2h-14.8z" fill="#4A555F" /></svg>