<svg width="500" height="500" viewBox="0 0 500 500" fill="none" xmlns="http://www.w3.org/2000/svg">
<g clip-path="url(#clip0_153_25)">
<rect width="500" height="500" fill="black"/>
<path fill-rule="evenodd" clip-rule="evenodd" d="M311.843 319.25C290.817 331.381 266.421 338.322 240.402 338.322C214.384 338.322 189.988 331.381 168.962 319.25H311.843ZM316.325 316.553C319.195 314.755 321.996 312.858 324.724 310.866H156.081C158.809 312.858 161.61 314.755 164.48 316.553H316.325ZM140.666 297.863C143.454 300.57 146.351 303.165 149.351 305.641H331.454C334.454 303.165 337.351 300.57 340.139 297.863H140.666ZM344.447 293.496C347.004 290.792 349.456 287.988 351.798 285.092H129.007C131.349 287.988 133.801 290.792 136.358 293.496H344.447ZM116.313 266.601C118.421 270.255 120.686 273.806 123.098 277.247H357.707C360.119 273.806 362.384 270.255 364.492 266.601H116.313ZM368.418 259.317C370.34 255.49 372.095 251.564 373.674 247.55H107.131C108.71 251.564 110.465 255.49 112.387 259.317H368.418ZM101.916 231.581C102.635 234.322 103.433 237.032 104.308 239.706H376.497C377.372 237.032 378.17 234.322 378.889 231.581H101.916ZM380.479 224.857C381.371 220.628 382.077 216.329 382.587 211.97H98.2181C98.7279 216.329 99.4335 220.628 100.326 224.858L380.479 224.857ZM97.2417 195.161C97.2417 197.887 97.3179 200.596 97.4684 203.285H383.337C383.487 200.596 383.563 197.887 383.563 195.161C383.563 193.473 383.534 191.792 383.476 190.118H97.3289C97.2709 191.792 97.2417 193.473 97.2417 195.161ZM382.887 181.153C382.649 178.706 382.35 176.278 381.991 173.869H98.8143C98.4551 176.278 98.1559 178.706 97.9183 181.153H382.887ZM240.402 52C171.519 52 113.999 100.65 100.326 165.464H380.479C366.806 100.65 309.286 52 240.402 52Z" fill="url(#paint0_linear_153_25)"/>
<g filter="url(#filter0_d_153_25)">
<path d="M229.196 447.863L47.0933 193.2L62.7821 191.239L229.196 420.408L444.357 141.931L475.455 138.569L229.196 447.863Z" fill="#00F1FF"/>
</g>
<path fill-rule="evenodd" clip-rule="evenodd" d="M430.645 160.421L451.362 141.09L376.613 150.404L380.532 165.464C380.955 167.415 381.14 168.585 381.372 170.787L430.645 160.421ZM98.6155 209.812C97.3334 200.795 96.9453 195.705 97.4957 186.496L60.8213 191.519L61.9411 213.371L98.6155 209.812Z" fill="#00F1FF"/>
<g filter="url(#filter1_d_153_25)">
<path d="M462.648 259.459C458.378 259.992 455.981 258.159 455.458 253.96C455.253 252.323 455.445 250.384 456.033 248.142C456.683 245.82 457.618 243.463 458.837 241.071C460.056 238.678 461.476 236.441 463.096 234.36C464.706 232.207 466.401 230.442 468.181 229.064C470.023 227.605 471.798 226.77 473.506 226.557C474.075 226.486 474.484 226.579 474.733 226.837C475.045 227.015 475.307 227.38 475.52 227.932C475.698 228.198 475.845 228.505 475.96 228.852C476.076 229.199 476.227 229.542 476.414 229.88C476.761 230.343 477.072 230.81 477.348 231.281C477.623 231.753 477.797 232.273 477.868 232.843C477.956 233.554 477.858 234.217 477.573 234.831C477.28 235.373 476.91 235.889 476.465 236.378C475.834 237.108 474.868 238.059 473.569 239.233C472.261 240.336 470.815 241.492 469.231 242.701C467.71 243.831 466.211 244.849 464.734 245.756C463.328 246.654 462.171 247.232 461.264 247.49C460.748 248.566 460.227 249.896 459.702 251.479C459.239 252.982 459.083 254.339 459.233 255.549C459.313 256.189 459.527 256.741 459.874 257.203C460.292 257.657 460.856 257.84 461.568 257.751C462.707 257.609 464.135 256.889 465.852 255.59C467.631 254.212 469.456 252.611 471.324 250.788C473.184 248.894 474.875 247.093 476.396 245.385C477.98 243.598 479.146 242.224 479.893 241.263L482.857 237.207C483.231 236.727 483.667 236.456 484.165 236.394C484.592 236.341 484.828 236.492 484.872 236.848C484.925 237.275 484.431 238.24 483.39 239.743C482.34 241.175 481.063 242.816 479.559 244.666C478.117 246.436 476.769 248.085 475.514 249.615C474.251 251.074 473.428 252.008 473.045 252.417C471.71 253.884 470.162 255.378 468.4 256.899C466.63 258.348 464.712 259.202 462.648 259.459ZM462.733 244.488C463.391 243.972 464.374 243.163 465.682 242.06C467.061 240.948 468.463 239.725 469.886 238.392C471.31 237.058 472.485 235.755 473.41 234.483C474.407 233.202 474.852 232.135 474.746 231.281C474.719 231.067 474.661 230.894 474.572 230.76C474.492 230.698 474.345 230.68 474.132 230.707C473.207 230.822 472.166 231.458 471.009 232.614C469.852 233.77 468.722 235.14 467.618 236.723C466.506 238.235 465.5 239.734 464.602 241.219C463.765 242.624 463.142 243.714 462.733 244.488Z" fill="white"/>
</g>
<g filter="url(#filter2_d_153_25)">
<path d="M425.856 300.15C423.08 300.496 421.092 299.913 419.892 298.4C418.62 296.897 417.838 294.971 417.545 292.622C417.314 290.772 417.288 288.823 417.467 286.777C417.654 284.803 417.899 283.001 418.202 281.373C419.663 272.807 422.076 264.628 425.441 256.836C428.868 248.964 433.144 241.529 438.27 234.529C437.852 234.075 437.252 233.608 436.469 233.127C435.758 232.638 435.367 232.109 435.296 231.539C435.207 230.827 435.363 230.338 435.763 230.071C436.154 229.734 436.635 229.529 437.204 229.458C437.347 229.44 437.925 229.44 438.939 229.459C440.015 229.397 441.02 229.633 441.954 230.167L446.88 223.589C447.254 223.109 447.592 222.633 447.895 222.162C448.188 221.619 448.526 221.144 448.909 220.734C449.221 220.334 449.541 220.005 449.87 219.747C450.27 219.481 450.72 219.316 451.218 219.254C452.001 219.156 452.606 219.37 453.033 219.895C453.451 220.349 453.699 220.896 453.779 221.536C453.868 222.248 453.77 222.911 453.485 223.525C453.192 224.067 452.795 224.659 452.297 225.299C451.3 226.58 450.166 227.914 448.893 229.301C447.621 230.689 446.687 231.889 446.09 232.903C447.362 233.829 448.416 234.745 449.252 235.653C450.079 236.489 450.83 237.588 451.506 238.949C451.808 239.634 452.075 240.324 452.306 241.018C452.537 241.712 452.702 242.45 452.799 243.233C453.137 245.937 452.704 248.557 451.503 251.092C450.372 253.618 448.708 255.922 446.51 258.003C444.304 260.013 441.839 261.693 439.117 263.045C436.394 264.396 433.681 265.241 430.976 265.578C430.264 265.667 429.499 265.617 428.681 265.43C427.943 265.306 427.258 265.03 426.626 264.603C425.896 266.284 425.22 268.392 424.596 270.927C423.982 273.533 423.447 276.202 422.993 278.933C422.547 281.735 422.258 284.337 422.123 286.739C421.927 289.221 421.918 291.173 422.095 292.597C422.282 294.091 422.677 295.234 423.282 296.026C423.895 296.889 424.807 297.245 426.017 297.094C426.231 297.068 426.795 296.961 427.712 296.775C428.708 296.65 429.571 296.326 430.301 295.801C430.567 296.78 430.247 297.687 429.339 298.523C428.441 299.43 427.279 299.973 425.856 300.15ZM433.979 262.71C434.335 262.665 434.655 262.625 434.94 262.59C435.287 262.474 435.598 262.363 435.874 262.257C438.241 261.528 440.412 260.39 442.387 258.842C444.362 257.295 445.862 255.41 446.885 253.186C447.971 250.882 448.346 248.378 448.008 245.674C447.804 244.037 447.195 242.342 446.182 240.589C445.23 238.756 443.874 237.444 442.113 236.652C439.817 239.685 437.28 243.398 434.504 247.792C431.789 252.105 429.44 256.735 427.454 261.681C427.766 261.28 428.064 261.062 428.349 261.027C428.705 260.983 429.043 261.085 429.363 261.334C429.754 261.574 429.994 261.761 430.083 261.895C431.044 262.642 432.342 262.914 433.979 262.71Z" fill="white"/>
</g>
<g filter="url(#filter3_d_153_25)">
<path d="M413.073 267.594C412.433 267.674 411.65 267.482 410.725 267.02C409.871 266.548 409.115 265.992 408.457 265.351C407.79 264.639 407.416 263.963 407.337 263.322C407.203 262.255 407.417 260.783 407.978 258.906C408.53 256.958 409.194 255.032 409.968 253.128C410.814 251.216 411.468 249.797 411.931 248.872C411.041 249.851 409.933 251.398 408.607 253.515C407.343 255.552 405.955 257.749 404.442 260.106C402.991 262.383 401.541 264.37 400.09 266.069C398.711 267.759 397.452 268.675 396.313 268.817C394.747 269.012 393.4 268.638 392.27 267.695C391.203 266.672 390.572 265.377 390.376 263.811C390.11 261.676 390.431 259.324 391.339 256.753C392.238 254.111 393.507 251.532 395.144 249.015C396.844 246.417 398.713 244.016 400.751 241.81C402.86 239.596 404.946 237.782 407.01 236.368C409.146 234.945 411.103 234.123 412.882 233.901C414.804 233.661 416.427 233.929 417.752 234.703C419.069 235.406 419.838 236.647 420.06 238.426C420.095 238.711 420.091 239.254 420.046 240.054C420.073 240.846 419.872 241.269 419.445 241.322C419.232 241.348 418.836 241.073 418.258 240.494C417.751 239.907 417.066 239.342 416.203 238.799C415.341 238.256 414.304 238.06 413.095 238.211C411.102 238.46 409.096 239.469 407.076 241.238C405.118 242.928 403.285 245.036 401.576 247.562C399.859 250.017 398.399 252.511 397.198 255.046C395.996 257.581 395.11 259.752 394.54 261.557C394.389 262.082 394.242 262.643 394.1 263.239C394.028 263.826 394.028 264.404 394.099 264.973C394.179 265.614 394.397 265.912 394.753 265.868C395.109 265.823 395.807 265.339 396.848 264.414C397.96 263.48 398.743 262.804 399.197 262.386C401.466 260.296 403.562 257.975 405.484 255.422C407.477 252.861 409.213 250.259 410.69 247.618C411.162 246.764 411.598 245.914 411.998 245.069C412.399 244.224 412.804 243.415 413.213 242.641C413.507 242.099 413.832 241.805 414.188 241.761C414.971 241.663 415.784 242.104 416.629 243.082C417.545 244.052 418.052 244.929 418.15 245.712C418.194 246.067 418.15 246.29 418.016 246.379C417.954 246.459 417.767 246.699 417.456 247.099C416.521 248.3 415.64 249.928 414.812 251.982C414.055 254.028 413.41 256.096 412.876 258.187C412.404 260.197 412.074 261.9 411.887 263.297C411.842 263.519 411.807 263.813 411.78 264.178C411.815 264.462 412.006 264.547 412.353 264.431C413.039 264.129 414.08 263.204 415.477 261.657C416.936 260.029 418.48 258.21 420.108 256.2C421.799 254.11 423.294 252.189 424.594 250.437C425.964 248.676 426.858 247.444 427.277 246.742C427.401 246.581 427.526 246.421 427.65 246.261C427.837 246.021 428.037 245.888 428.251 245.861C428.749 245.799 429.029 246.017 429.091 246.515C429.127 246.8 428.664 247.725 427.703 249.29C426.733 250.785 425.509 252.563 424.032 254.627C422.546 256.619 421.024 258.616 419.467 260.617C417.901 262.547 416.517 264.201 415.315 265.58C414.176 266.878 413.429 267.55 413.073 267.594Z" fill="white"/>
</g>
<g filter="url(#filter4_d_153_25)">
<path d="M348.758 219.89C346.125 220.219 344.649 219.102 344.329 216.54C344.205 215.544 344.85 214.632 346.265 213.805C347.67 212.907 349.557 212.093 351.923 211.365C354.352 210.556 356.941 209.872 359.69 209.312C362.51 208.743 365.232 208.259 367.856 207.86C370.472 207.389 372.776 207.029 374.769 206.781C376.753 206.461 378.065 206.261 378.705 206.181L384.577 205.449C390.057 204.765 395.621 204.18 401.27 203.692C406.919 203.204 412.404 203.135 417.723 203.483C418.017 203.519 418.533 203.599 419.271 203.724C420.072 203.768 420.814 203.929 421.499 204.205C422.247 204.401 422.651 204.748 422.713 205.246C422.758 205.602 422.469 205.891 421.846 206.113C421.285 206.255 420.792 206.353 420.365 206.406C419.439 206.522 418.47 206.57 417.456 206.552C416.441 206.534 415.427 206.516 414.413 206.498C411.433 206.364 408.373 206.456 405.233 206.776C402.163 207.086 399.099 207.432 396.039 207.814C390.63 208.489 385.199 209.274 379.745 210.171C374.283 210.997 368.887 212.068 363.558 213.383C363.487 213.97 362.811 214.632 361.53 215.37C360.248 216.108 358.709 216.806 356.912 217.464C355.186 218.113 353.522 218.682 351.921 219.171C350.382 219.58 349.328 219.819 348.758 219.89ZM364.995 279.662C363.429 279.857 362.255 279.425 361.472 278.366C360.699 277.379 360.219 276.137 360.032 274.643C359.73 272.223 359.905 269.274 360.555 265.796C361.196 262.247 362.136 258.48 363.374 254.495C364.602 250.439 365.947 246.44 367.407 242.5C368.858 238.488 370.247 234.846 371.573 231.572C372.89 228.228 373.999 225.524 374.898 223.46C375.565 221.859 376.255 220.147 376.967 218.324C377.671 216.429 378.472 214.739 379.371 213.254C379.664 212.711 380.229 212.315 381.066 212.067C381.902 211.818 382.569 211.662 383.067 211.6C383.637 211.529 384.291 211.556 385.029 211.681C385.767 211.805 386.221 212.255 386.39 213.029C386.461 213.598 386.389 214.185 386.176 214.79C386.024 215.315 385.833 215.809 385.601 216.271C383.047 221.866 380.465 227.247 377.858 232.415C375.25 237.583 372.9 243.08 370.808 248.906C370.38 250.115 369.726 251.823 368.845 254.029C367.954 256.164 367.055 258.517 366.147 261.087C365.31 263.649 364.611 266.158 364.05 268.613C363.56 271.059 363.426 273.172 363.648 274.951C363.684 275.235 363.777 275.694 363.928 276.325C364.15 276.948 364.582 277.22 365.222 277.14C365.578 277.095 365.796 277.393 365.876 278.034C365.92 278.39 365.853 278.723 365.675 279.035C365.577 279.408 365.351 279.617 364.995 279.662Z" fill="white"/>
</g>
<g filter="url(#filter5_d_153_25)">
<path d="M288.249 241.314C286.612 241.518 285.718 241.016 285.567 239.806C285.461 238.952 285.808 237.969 286.609 236.857C287.41 235.745 288.673 234.865 290.399 234.216C291.431 233.798 292.267 233.549 292.908 233.469C293.611 233.309 294.269 233.083 294.883 232.789C294.767 234.177 294.344 235.712 293.614 237.393C292.955 239.065 291.936 240.168 290.557 240.701C289.872 241.003 289.103 241.208 288.249 241.314ZM274.317 294.765C272.751 294.961 271.541 294.533 270.687 293.483C269.843 292.505 269.336 291.339 269.167 289.987C269.043 288.991 269.204 287.381 269.649 285.157C270.103 283.004 270.727 280.469 271.519 277.551C272.383 274.625 273.376 271.574 274.497 268.398C275.619 265.223 276.759 262.19 277.916 259.299C276.714 260.677 275.424 262.212 274.045 263.901C272.737 265.582 271.486 267.148 270.294 268.597C270.232 268.677 270.072 268.842 269.813 269.091C269.627 269.331 269.426 269.464 269.213 269.491C268.715 269.553 268.439 269.371 268.386 268.944C268.341 268.588 268.444 268.25 268.693 267.93C270.348 265.555 272.075 263.171 273.872 260.779C275.741 258.377 277.53 255.914 279.238 253.388C279.781 252.525 280.24 251.854 280.613 251.373C281.049 250.813 281.766 250.471 282.762 250.346C283.189 250.293 283.843 250.32 284.724 250.427C285.666 250.454 286.449 250.645 287.072 251.001C287.766 251.349 287.939 251.869 287.592 252.563C287.174 253.266 286.524 254.431 285.643 256.058C284.762 257.686 283.831 259.501 282.852 261.502C281.864 263.432 280.943 265.318 280.089 267.159C279.296 268.92 278.678 270.334 278.233 271.402C276.746 275.129 275.744 278.398 275.228 281.208C274.782 284.011 274.657 286.194 274.852 287.76C275.092 289.682 275.674 290.585 276.6 290.469C277.525 290.354 278.944 289.274 280.857 287.228C282.77 285.183 284.928 282.781 287.331 280.024C288.221 279.046 289.342 277.605 290.695 275.702C292.118 273.79 293.596 271.726 295.126 269.511C296.728 267.288 298.174 265.265 299.465 263.441C299.225 261.52 298.937 259.785 298.599 258.237C298.332 256.68 297.982 255.025 297.546 253.273C296.674 253.815 295.918 254.126 295.277 254.206C294.637 254.286 294.281 254.041 294.21 253.472C294.112 252.689 294.464 251.742 295.265 250.63C295.577 250.23 296.217 249.572 297.187 248.656C298.157 247.74 298.891 247.251 299.389 247.189C299.959 247.118 300.403 247.207 300.723 247.456C301.115 247.696 301.475 247.976 301.804 248.297C302.133 248.617 302.462 249.516 302.791 250.992C303.12 252.469 303.413 253.95 303.67 255.436C303.999 256.913 304.199 257.936 304.27 258.505C305.729 256.878 306.895 255.504 307.767 254.383C308.71 253.254 309.876 251.88 311.264 250.261C311.958 249.452 312.897 248.286 314.081 246.766C315.264 245.245 316.199 244.044 316.884 243.164C317.16 241.9 317.498 240.846 317.899 240.001C318.228 239.165 318.647 238.463 319.154 237.893C319.732 237.315 320.377 236.982 321.089 236.893C321.667 236.893 322.165 237.12 322.583 237.574C323.072 238.019 323.357 238.562 323.437 239.202C323.579 240.341 323.267 241.319 322.502 242.138C321.808 242.947 321.034 243.983 320.179 245.246C319.387 246.429 318.893 248.261 318.697 250.743C318.661 251.037 318.607 251.477 318.536 252.064C318.465 252.651 318.251 252.967 317.895 253.011C316.881 252.993 316.29 252.308 316.121 250.956C316.086 250.671 316.046 250.351 316.001 249.995C316.019 249.559 316.042 249.159 316.068 248.794L304.629 261.388L305.255 266.405C305.477 268.184 305.735 269.959 306.028 271.73C306.392 273.491 306.752 274.639 307.108 275.172C307.357 275.431 307.566 275.657 307.735 275.853C307.966 275.969 308.224 276.009 308.508 275.973C309.505 275.849 310.679 275.125 312.032 273.799C313.375 272.403 314.795 270.744 316.29 268.823C317.776 266.831 319.16 264.888 320.441 262.993C321.785 261.019 322.915 259.36 323.832 258.017C324.82 256.665 325.42 255.976 325.634 255.949L325.847 255.923C326.203 255.878 326.408 256.07 326.461 256.497L326.488 256.71C326.532 257.066 326.439 257.475 326.207 257.938C325.566 259.174 324.819 260.424 323.964 261.687C323.101 262.878 322.274 264.066 321.482 265.249C320.511 266.743 319.506 268.242 318.465 269.745C317.486 271.168 316.431 272.564 315.301 273.934C314.678 274.734 313.931 275.695 313.058 276.815C312.258 277.927 311.368 278.905 310.389 279.75C309.49 280.657 308.507 281.178 307.439 281.311C306.799 281.391 305.981 281.204 304.984 280.75C304.068 280.358 303.401 279.935 302.983 279.481C302.556 278.956 302.143 277.96 301.743 276.492C301.343 275.024 300.988 273.334 300.677 271.421C300.366 269.508 300.069 267.703 299.784 266.003L293.951 274.862C292.304 277.308 290.409 279.785 288.264 282.293C286.2 284.863 284.14 287.18 282.084 289.243C280.1 291.298 278.307 292.858 276.705 293.925C275.896 294.388 275.099 294.668 274.317 294.765Z" fill="white"/>
</g>
<g filter="url(#filter6_d_153_25)">
<path d="M182.731 298.708C181.379 298.876 180.529 297.573 180.183 294.797C180.015 293.445 180.353 291.235 181.199 288.166C182.036 285.026 183.207 281.374 184.712 277.212C186.278 272.969 188.077 268.552 190.106 263.963C192.127 259.302 194.232 254.739 196.421 250.274C198.611 245.809 200.743 241.748 202.816 238.093C204.881 234.366 206.786 231.382 208.53 229.141C210.274 226.899 211.68 225.712 212.748 225.579C213.246 225.517 213.953 225.682 214.869 226.073C215.785 226.465 216.639 226.937 217.431 227.488C218.222 228.04 218.649 228.565 218.711 229.063C218.871 230.344 218.866 231.754 218.697 233.293C218.59 234.752 218.509 236.135 218.455 237.443C218.402 238.172 218.317 239.809 218.201 242.353C218.075 244.826 217.999 247.691 217.971 250.947C218.006 254.123 218.201 257.134 218.556 259.981C218.893 262.685 219.466 264.963 220.275 266.813C221.084 268.664 222.236 269.496 223.731 269.309C225.652 269.07 227.89 267.887 230.444 265.762C232.997 263.636 235.667 260.991 238.452 257.824C241.3 254.578 244.094 251.194 246.835 247.672C249.638 244.07 252.183 240.717 254.47 237.613C256.819 234.429 258.773 231.836 260.33 229.835C261.959 227.825 262.951 226.798 263.307 226.754C263.52 226.727 263.645 226.856 263.68 227.141C263.751 227.71 263.591 228.453 263.199 229.369C262.549 231.112 261.454 233.345 259.915 236.067C258.437 238.708 256.666 241.603 254.602 244.752C252.537 247.901 250.29 251.036 247.86 254.157C245.502 257.27 243.077 260.139 240.586 262.762C238.094 265.386 235.656 267.569 233.272 269.312C230.878 270.984 228.649 271.948 226.586 272.206C223.312 272.614 220.71 272.035 218.78 270.469C216.841 268.832 215.374 266.629 214.378 263.863C213.374 261.024 212.676 258.04 212.286 254.908C211.833 251.279 211.62 248.125 211.648 245.447C211.666 242.699 211.712 239.585 211.784 236.107C208.998 239.851 206.039 244.232 202.907 249.248C199.836 254.184 196.913 259.428 194.136 264.978C191.43 270.519 189.155 276.043 187.312 281.549C185.461 286.984 184.396 292.067 184.119 296.8C184.101 297.236 184.008 297.645 183.838 298.028C183.669 298.41 183.3 298.637 182.731 298.708ZM258.313 285.812C256.748 286.007 255.622 285.388 254.938 283.956C254.324 282.515 253.942 281.189 253.791 279.979C253.623 278.627 253.69 276.559 253.993 273.774C254.359 270.91 254.889 267.628 255.584 263.927C256.279 260.227 257.098 256.366 258.042 252.345C259.049 248.245 260.139 244.242 261.315 240.337C262.561 236.423 263.821 232.905 265.094 229.783C266.358 226.59 267.626 224.01 268.899 222.045C270.172 220.079 271.377 219.025 272.516 218.883C273.085 218.812 274.01 218.986 275.291 219.405C276.572 219.823 277.261 220.424 277.359 221.206C277.386 221.42 276.883 222.603 275.85 224.755C274.809 226.837 273.452 229.572 271.778 232.961C270.176 236.341 268.476 240.094 266.678 244.222C264.871 248.278 263.188 252.463 261.63 256.777C260.144 261.082 258.995 265.2 258.184 269.132C257.365 272.993 257.137 276.382 257.501 279.3L257.608 280.154C257.67 280.652 257.803 281.141 258.008 281.622C258.203 282.031 258.55 282.204 259.048 282.142C259.902 282.036 260.382 282.41 260.489 283.264C260.551 283.762 260.4 284.287 260.035 284.838C259.67 285.389 259.096 285.714 258.313 285.812Z" fill="white"/>
</g>
<g filter="url(#filter7_d_153_25)">
<path d="M99.7809 347.215C96.5071 347.624 94.6661 346.191 94.2577 342.917C94.2134 342.561 94.2046 342.201 94.2313 341.836C94.187 341.48 94.1782 341.12 94.205 340.755C94.4548 338.122 95.3584 335.516 96.9159 332.937C98.4734 330.357 100.369 327.88 102.602 325.506C104.845 323.202 107.136 321.001 109.476 318.902C111.896 316.866 114.059 315.079 115.963 313.54C117.075 312.606 118.485 311.455 120.194 310.085C121.973 308.707 123.846 307.208 125.813 305.59C127.788 304.043 129.665 302.58 131.445 301.201C131.979 299.111 132.238 296.838 132.221 294.383C132.266 291.848 132.155 289.512 131.889 287.377L131.782 286.523C131.088 287.911 130.029 289.561 128.605 291.473C127.181 293.385 125.54 295.288 123.68 297.183C121.811 299.006 119.947 300.576 118.088 301.892C116.228 303.208 114.48 303.968 112.843 304.172C111.704 304.314 110.877 304.056 110.361 303.397C109.916 302.73 109.636 301.934 109.521 301.009C109.21 298.518 109.425 295.889 110.164 293.123C110.903 290.356 111.811 287.786 112.888 285.411C113.956 282.965 114.931 280.928 115.812 279.3C116.684 277.601 117.107 276.645 117.08 276.431C117.071 276.36 116.996 276.334 116.854 276.351C116.569 276.387 116.249 276.427 115.893 276.471C115.608 276.507 115.546 276.298 115.706 275.844C116.552 274.51 117.664 273.287 119.043 272.175C120.422 271.064 121.788 270.424 123.14 270.255C123.638 270.193 124.234 270.335 124.928 270.682C125.684 270.95 126.098 271.368 126.169 271.937C126.213 272.293 126.048 272.711 125.675 273.191C125.239 273.752 124.705 274.396 124.073 275.126C123.512 275.846 122.747 276.953 121.777 278.448C121.225 279.239 120.482 280.524 119.547 282.303C118.604 284.011 117.656 285.972 116.704 288.187C115.742 290.331 114.959 292.452 114.353 294.552C113.81 296.571 113.627 298.292 113.805 299.715C113.831 299.929 113.862 300.178 113.898 300.463C113.996 300.667 114.2 300.859 114.512 301.037C115.517 300.983 116.709 300.401 118.088 299.29C119.459 298.107 120.869 296.666 122.319 294.967C123.832 293.189 125.229 291.352 126.511 289.458C127.855 287.483 129.003 285.677 129.955 284.041C130.97 282.324 131.668 280.972 132.051 279.985C132.656 278.464 133.742 277.606 135.308 277.411C136.446 277.268 137.118 277.438 137.322 277.918C137.598 278.39 137.789 279.052 137.896 279.907C138.242 282.682 138.37 285.16 138.281 287.339C138.253 289.438 137.977 291.858 137.451 294.598C141.518 290.115 145.344 285.446 148.931 280.59C148.984 280.439 149.104 280.243 149.291 280.003C149.549 279.754 149.749 279.621 149.892 279.603C150.319 279.55 150.559 279.737 150.612 280.164C150.683 280.733 150.541 281.329 150.185 281.951C149.642 282.814 149.028 283.686 148.343 284.566C147.728 285.438 147.114 286.31 146.5 287.181C145.023 289.245 143.51 291.312 141.962 293.385C140.404 295.386 138.732 297.329 136.943 299.215C134.743 308.234 131.378 316.315 126.848 323.457C122.399 330.662 116.441 337.079 108.976 342.708C107.721 343.659 106.284 344.597 104.665 345.522C103.046 346.447 101.418 347.011 99.7809 347.215ZM101.903 344.24C103.825 344.001 105.836 343.027 107.936 341.32C109.973 339.692 111.966 337.709 113.915 335.37C115.864 333.031 117.599 330.718 119.121 328.433C120.723 326.209 121.973 324.355 122.872 322.869C123.878 321.081 124.848 319.298 125.783 317.519C126.726 315.811 127.589 314.041 128.373 312.209C129.557 309.532 130.5 306.957 131.204 304.484C131.248 304.261 131.159 304.128 130.937 304.083C130.795 304.101 130.723 304.11 130.723 304.11C128.712 305.951 126.662 307.761 124.57 309.539C122.56 311.38 120.509 313.19 118.418 314.969C117.368 315.822 115.966 317.045 114.213 318.637C112.469 320.3 110.601 322.123 108.607 324.106C106.623 326.161 104.75 328.237 102.988 330.336C101.235 332.506 99.8288 334.561 98.7697 336.5C97.7194 338.51 97.2831 340.227 97.4606 341.65C97.6026 342.789 98.1628 343.514 99.1413 343.826C100.057 344.217 100.978 344.356 101.903 344.24Z" fill="white"/>
</g>
<g filter="url(#filter8_d_153_25)">
<path d="M23.6429 318.55C22.2907 318.718 21.4415 317.415 21.0953 314.639C20.9267 313.287 21.2653 311.076 22.1112 308.008C22.9483 304.868 24.1191 301.216 25.6237 297.053C27.1905 292.81 28.9886 288.394 31.0181 283.804C33.0388 279.144 35.1439 274.581 37.3335 270.115C39.5231 265.65 41.6547 261.59 43.7285 257.934C45.7933 254.208 47.6978 251.224 49.442 248.982C51.1862 246.741 52.5921 245.554 53.6596 245.421C54.1578 245.359 54.865 245.523 55.7811 245.915C56.6973 246.307 57.5512 246.778 58.3428 247.33C59.1343 247.882 59.5612 248.407 59.6233 248.905C59.7831 250.186 59.7783 251.596 59.6088 253.135C59.5017 254.594 59.4212 255.977 59.3675 257.285C59.3139 258.014 59.229 259.651 59.1126 262.195C58.9874 264.668 58.911 267.533 58.8834 270.789C58.9181 273.964 59.113 276.976 59.4681 279.822C59.8054 282.527 60.3786 284.804 61.1876 286.655C61.9966 288.505 63.1484 289.338 64.6429 289.151C66.5645 288.911 68.8021 287.729 71.3558 285.604C73.9095 283.478 76.5789 280.832 79.3642 277.666C82.2118 274.42 85.006 271.036 87.7469 267.514C90.55 263.912 93.0951 260.559 95.3822 257.455C97.7316 254.271 99.6849 251.678 101.242 249.677C102.871 247.667 103.863 246.64 104.219 246.595C104.432 246.569 104.557 246.698 104.592 246.982C104.663 247.552 104.503 248.295 104.111 249.211C103.461 250.954 102.367 253.187 100.827 255.908C99.3495 258.55 97.5784 261.445 95.5137 264.594C93.449 267.742 91.202 270.877 88.7725 273.999C86.4143 277.112 83.9894 279.98 81.4979 282.604C79.0063 285.228 76.5682 287.411 74.1837 289.154C71.7903 290.826 69.5616 291.79 67.4977 292.048C64.2239 292.456 61.622 291.877 59.6921 290.311C57.7532 288.673 56.286 286.471 55.2904 283.704C54.286 280.866 53.5885 277.882 53.1979 274.75C52.7452 271.12 52.5326 267.967 52.56 265.289C52.5786 262.54 52.6239 259.427 52.696 255.949C49.9106 259.693 46.9515 264.073 43.8188 269.09C40.7484 274.026 37.8247 279.269 35.0477 284.82C32.3418 290.361 30.0674 295.885 28.2245 301.391C26.3727 306.826 25.3082 311.909 25.0312 316.642C25.0133 317.078 24.9197 317.487 24.7506 317.869C24.5815 318.252 24.2123 318.479 23.6429 318.55ZM99.2254 305.653C97.6597 305.849 96.5345 305.23 95.8499 303.798C95.2365 302.356 94.8543 301.031 94.7034 299.821C94.5348 298.469 94.6021 296.401 94.9053 293.616C95.2708 290.752 95.801 287.469 96.4959 283.769C97.1908 280.069 98.0103 276.208 98.9543 272.187C99.9607 268.087 101.052 264.084 102.227 260.179C103.473 256.265 104.733 252.747 106.006 249.625C107.27 246.432 108.538 243.852 109.811 241.887C111.084 239.921 112.289 238.867 113.428 238.725C113.997 238.654 114.923 238.828 116.203 239.246C117.484 239.665 118.174 240.265 118.271 241.048C118.298 241.262 117.795 242.445 116.762 244.597C115.721 246.679 114.364 249.414 112.69 252.803C111.088 256.183 109.388 259.936 107.59 264.063C105.783 268.119 104.101 272.304 102.543 276.618C101.056 280.924 99.9071 285.042 99.0965 288.974C98.277 292.834 98.0493 296.224 98.4132 299.141L98.5197 299.996C98.5818 300.494 98.7151 300.983 98.9196 301.463C99.1152 301.873 99.4621 302.046 99.9603 301.984C100.814 301.878 101.295 302.251 101.401 303.105C101.463 303.604 101.312 304.128 100.947 304.68C100.582 305.231 100.008 305.556 99.2254 305.653Z" fill="white"/>
</g>
</g>
<defs>
<filter id="filter0_d_153_25" x="43.0933" y="101.569" width="436.362" height="346.294" filterUnits="userSpaceOnUse" color-interpolation-filters="sRGB">
<feFlood flood-opacity="0" result="BackgroundImageFix"/>
<feColorMatrix in="SourceAlpha" type="matrix" values="0 0 0 0 0 0 0 0 0 0 0 0 0 0 0 0 0 0 127 0" result="hardAlpha"/>
<feOffset dy="-33"/>
<feGaussianBlur stdDeviation="2"/>
<feComposite in2="hardAlpha" operator="out"/>
<feColorMatrix type="matrix" values="0 0 0 0 0 0 0 0 0 0 0 0 0 0 0 0 0 0 0.5 0"/>
<feBlend mode="normal" in2="BackgroundImageFix" result="effect1_dropShadow_153_25"/>
<feBlend mode="normal" in="SourceGraphic" in2="effect1_dropShadow_153_25" result="shape"/>
</filter>
<filter id="filter1_d_153_25" x="427.379" y="198.534" width="57.4971" height="61.0156" filterUnits="userSpaceOnUse" color-interpolation-filters="sRGB">
<feFlood flood-opacity="0" result="BackgroundImageFix"/>
<feColorMatrix in="SourceAlpha" type="matrix" values="0 0 0 0 0 0 0 0 0 0 0 0 0 0 0 0 0 0 127 0" result="hardAlpha"/>
<feOffset dx="-24" dy="-24"/>
<feGaussianBlur stdDeviation="2"/>
<feComposite in2="hardAlpha" operator="out"/>
<feColorMatrix type="matrix" values="0 0 0 0 0 0 0 0 0 0 0 0 0 0 0 0 0 0 0.25 0"/>
<feBlend mode="normal" in2="BackgroundImageFix" result="effect1_dropShadow_153_25"/>
<feBlend mode="normal" in="SourceGraphic" in2="effect1_dropShadow_153_25" result="shape"/>
</filter>
<filter id="filter2_d_153_25" x="389.35" y="191.231" width="64.4614" height="109.016" filterUnits="userSpaceOnUse" color-interpolation-filters="sRGB">
<feFlood flood-opacity="0" result="BackgroundImageFix"/>
<feColorMatrix in="SourceAlpha" type="matrix" values="0 0 0 0 0 0 0 0 0 0 0 0 0 0 0 0 0 0 127 0" result="hardAlpha"/>
<feOffset dx="-24" dy="-24"/>
<feGaussianBlur stdDeviation="2"/>
<feComposite in2="hardAlpha" operator="out"/>
<feColorMatrix type="matrix" values="0 0 0 0 0 0 0 0 0 0 0 0 0 0 0 0 0 0 0.25 0"/>
<feBlend mode="normal" in2="BackgroundImageFix" result="effect1_dropShadow_153_25"/>
<feBlend mode="normal" in="SourceGraphic" in2="effect1_dropShadow_153_25" result="shape"/>
</filter>
<filter id="filter3_d_153_25" x="362.286" y="205.816" width="66.8071" height="63.0513" filterUnits="userSpaceOnUse" color-interpolation-filters="sRGB">
<feFlood flood-opacity="0" result="BackgroundImageFix"/>
<feColorMatrix in="SourceAlpha" type="matrix" values="0 0 0 0 0 0 0 0 0 0 0 0 0 0 0 0 0 0 127 0" result="hardAlpha"/>
<feOffset dx="-24" dy="-24"/>
<feGaussianBlur stdDeviation="2"/>
<feComposite in2="hardAlpha" operator="out"/>
<feColorMatrix type="matrix" values="0 0 0 0 0 0 0 0 0 0 0 0 0 0 0 0 0 0 0.25 0"/>
<feBlend mode="normal" in2="BackgroundImageFix" result="effect1_dropShadow_153_25"/>
<feBlend mode="normal" in="SourceGraphic" in2="effect1_dropShadow_153_25" result="shape"/>
</filter>
<filter id="filter4_d_153_25" x="316.314" y="175.265" width="106.404" height="104.442" filterUnits="userSpaceOnUse" color-interpolation-filters="sRGB">
<feFlood flood-opacity="0" result="BackgroundImageFix"/>
<feColorMatrix in="SourceAlpha" type="matrix" values="0 0 0 0 0 0 0 0 0 0 0 0 0 0 0 0 0 0 127 0" result="hardAlpha"/>
<feOffset dx="-24" dy="-24"/>
<feGaussianBlur stdDeviation="2"/>
<feComposite in2="hardAlpha" operator="out"/>
<feColorMatrix type="matrix" values="0 0 0 0 0 0 0 0 0 0 0 0 0 0 0 0 0 0 0.25 0"/>
<feBlend mode="normal" in2="BackgroundImageFix" result="effect1_dropShadow_153_25"/>
<feBlend mode="normal" in="SourceGraphic" in2="effect1_dropShadow_153_25" result="shape"/>
</filter>
<filter id="filter5_d_153_25" x="240.375" y="204.789" width="86.123" height="90.0222" filterUnits="userSpaceOnUse" color-interpolation-filters="sRGB">
<feFlood flood-opacity="0" result="BackgroundImageFix"/>
<feColorMatrix in="SourceAlpha" type="matrix" values="0 0 0 0 0 0 0 0 0 0 0 0 0 0 0 0 0 0 127 0" result="hardAlpha"/>
<feOffset dx="-24" dy="-24"/>
<feGaussianBlur stdDeviation="2"/>
<feComposite in2="hardAlpha" operator="out"/>
<feColorMatrix type="matrix" values="0 0 0 0 0 0 0 0 0 0 0 0 0 0 0 0 0 0 0.25 0"/>
<feBlend mode="normal" in2="BackgroundImageFix" result="effect1_dropShadow_153_25"/>
<feBlend mode="normal" in="SourceGraphic" in2="effect1_dropShadow_153_25" result="shape"/>
</filter>
<filter id="filter6_d_153_25" x="152.141" y="190.868" width="125.219" height="107.854" filterUnits="userSpaceOnUse" color-interpolation-filters="sRGB">
<feFlood flood-opacity="0" result="BackgroundImageFix"/>
<feColorMatrix in="SourceAlpha" type="matrix" values="0 0 0 0 0 0 0 0 0 0 0 0 0 0 0 0 0 0 127 0" result="hardAlpha"/>
<feOffset dx="-24" dy="-24"/>
<feGaussianBlur stdDeviation="2"/>
<feComposite in2="hardAlpha" operator="out"/>
<feColorMatrix type="matrix" values="0 0 0 0 0 0 0 0 0 0 0 0 0 0 0 0 0 0 0.25 0"/>
<feBlend mode="normal" in2="BackgroundImageFix" result="effect1_dropShadow_153_25"/>
<feBlend mode="normal" in="SourceGraphic" in2="effect1_dropShadow_153_25" result="shape"/>
</filter>
<filter id="filter7_d_153_25" x="66.1899" y="242.241" width="84.4399" height="105.042" filterUnits="userSpaceOnUse" color-interpolation-filters="sRGB">
<feFlood flood-opacity="0" result="BackgroundImageFix"/>
<feColorMatrix in="SourceAlpha" type="matrix" values="0 0 0 0 0 0 0 0 0 0 0 0 0 0 0 0 0 0 127 0" result="hardAlpha"/>
<feOffset dx="-24" dy="-24"/>
<feGaussianBlur stdDeviation="2"/>
<feComposite in2="hardAlpha" operator="out"/>
<feColorMatrix type="matrix" values="0 0 0 0 0 0 0 0 0 0 0 0 0 0 0 0 0 0 0.25 0"/>
<feBlend mode="normal" in2="BackgroundImageFix" result="effect1_dropShadow_153_25"/>
<feBlend mode="normal" in="SourceGraphic" in2="effect1_dropShadow_153_25" result="shape"/>
</filter>
<filter id="filter8_d_153_25" x="-6.94678" y="210.71" width="125.219" height="107.854" filterUnits="userSpaceOnUse" color-interpolation-filters="sRGB">
<feFlood flood-opacity="0" result="BackgroundImageFix"/>
<feColorMatrix in="SourceAlpha" type="matrix" values="0 0 0 0 0 0 0 0 0 0 0 0 0 0 0 0 0 0 127 0" result="hardAlpha"/>
<feOffset dx="-24" dy="-24"/>
<feGaussianBlur stdDeviation="2"/>
<feComposite in2="hardAlpha" operator="out"/>
<feColorMatrix type="matrix" values="0 0 0 0 0 0 0 0 0 0 0 0 0 0 0 0 0 0 0.25 0"/>
<feBlend mode="normal" in2="BackgroundImageFix" result="effect1_dropShadow_153_25"/>
<feBlend mode="normal" in="SourceGraphic" in2="effect1_dropShadow_153_25" result="shape"/>
</filter>
<linearGradient id="paint0_linear_153_25" x1="240.402" y1="52" x2="240.402" y2="338.322" gradientUnits="userSpaceOnUse">
<stop offset="0.407168" stop-color="#FD9DFF"/>
<stop offset="0.614016" stop-color="white"/>
<stop offset="0.842955" stop-color="#00F1FF"/>
</linearGradient>
<clipPath id="clip0_153_25">
<rect width="500" height="500" fill="white"/>
</clipPath>
</defs>
</svg>
