<svg width="400" height="400" viewBox="0 0 400 400" fill="none" xmlns="http://www.w3.org/2000/svg">
<g clip-path="url(#clip0_13_2)">
<mask id="mask0_13_2" style="mask-type:luminance" maskUnits="userSpaceOnUse" x="0" y="0" width="400" height="400">
<path d="M0 0H400V400H0V0Z" fill="white"/>
</mask>
<g mask="url(#mask0_13_2)">
<path d="M298.783 0H101.217C45.317 0 0 45.317 0 101.217V298.783C0 354.683 45.316 400 101.217 400H298.783C354.683 400 400 354.683 400 298.783V101.217C400 45.317 354.683 0 298.783 0Z" fill="#00DDB3"/>
<path d="M304.035 89.598C235.084 89.598 209.653 138.756 189.15 178.261L175.664 203.509C153.924 245.408 137.7 270.859 95.883 270.859C93.2845 270.855 90.7108 271.364 88.3093 272.357C85.9078 273.349 83.7257 274.806 81.888 276.643C79.1191 279.408 77.2333 282.934 76.4694 286.772C75.7055 290.61 76.0979 294.588 77.597 298.203C78.5912 300.604 80.0492 302.785 81.8875 304.621C83.7258 306.457 85.9083 307.913 88.31 308.905C90.7112 309.898 93.2846 310.407 95.883 310.404C164.834 310.404 190.265 261.246 210.768 221.741L224.173 196.493C245.913 154.594 262.137 129.143 303.954 129.143C307.868 129.148 311.694 127.992 314.95 125.82C318.205 123.647 320.743 120.558 322.24 116.942C323.739 113.327 324.131 109.349 323.367 105.511C322.603 101.673 320.718 98.1475 317.949 95.382C316.111 93.5452 313.929 92.0889 311.527 91.0964C309.126 90.1039 306.552 89.5947 303.954 89.598H304.035Z" fill="white"/>
</g>
</g>
<defs>
<clipPath id="clip0_13_2">
<rect width="400" height="400" fill="white"/>
</clipPath>
</defs>
</svg>
